<?xml version="1.0" encoding="utf-8"?>
<!-- Generator: Adobe Illustrator 18.1.1, SVG Export Plug-In . SVG Version: 6.00 Build 0)  -->
<svg version="1.1" id="Layer_1" xmlns="http://www.w3.org/2000/svg" xmlns:xlink="http://www.w3.org/1999/xlink" x="0px" y="0px"
	 viewBox="0 0 164 50" enable-background="new 0 0 164 50" xml:space="preserve">
<path fill="none" d="M36.2,43.5h-1.3v2.1l1.3,0.1c0.6,0,1.1-0.5,1.1-1.1C37.3,44.1,36.8,43.5,36.2,43.5z"/>
<polygon fill="none" points="47.5,47.1 49.7,47.1 48.6,44.9 "/>
<path fill="none" d="M61.8,15c-5.4,0-8.2,4.5-8.2,8.5c0,4.5,3.5,8.2,8.2,8.2c4.5,0,8-3.5,8-8.4C69.8,17.8,65.8,15,61.8,15z"/>
<path fill="none" d="M14.8,15c-3.9,0-8,3.1-8,8.2c0,5.4,4.2,8.5,8.2,8.5c3.9,0,7.9-3.3,7.9-8.5C22.9,19.2,19.6,15,14.8,15z"/>
<path fill="#91C740" d="M36.3,42.3h-2.6c-0.1,0-0.2,0.1-0.2,0.2l0,0v6.9c0,0.1,0,0.2,0.2,0.2h1c0.1,0,0.2-0.1,0.2-0.2v-2.5h1.4
	c1.3,0,2.4-1,2.4-2.3C38.7,43.4,37.7,42.3,36.3,42.3z M36.2,45.7l-1.3-0.1v-2.1h1.3c0.6,0,1.1,0.5,1.1,1.1
	C37.3,45.3,36.8,45.7,36.2,45.7z"/>
<path fill="#91C740" d="M48.9,42.3c0-0.1-0.1-0.2-0.2-0.2h-0.1c-0.1,0-0.2,0.1-0.2,0.2L45,49.4c0,0.1,0,0.3,0.3,0.3h0.9
	c0.1,0,0.2-0.1,0.3-0.2l0.5-1.1h3.3l0.5,1.1c0.1,0.1,0.1,0.2,0.3,0.2h0.9c0.2,0,0.3-0.1,0.2-0.3L48.9,42.3z M47.5,47.1l1.1-2.3
	l1.1,2.3H47.5z"/>
<path fill="#91C740" d="M64.5,42.3h-1.1c-0.1,0-0.2,0-0.2,0.1l-1.7,2.4l-1.7-2.4c0,0-0.1-0.1-0.2-0.1h-1.1c-0.2,0-0.3,0.1-0.2,0.3
	l2.5,3.6v3.4c0,0.1,0,0.2,0.2,0.2h1c0.1,0,0.2-0.1,0.2-0.2v-3.4l2.5-3.6C64.7,42.5,64.7,42.3,64.5,42.3z"/>
<path fill="#91C740" d="M78.4,42.3h-0.2c-0.1,0-0.2,0-0.2,0.1l-2.4,5l-2.4-5c0,0-0.1-0.1-0.2-0.1h-0.2c-0.1,0-0.2,0.1-0.2,0.2
	l-1.2,7.1c0,0.1,0,0.2,0.2,0.2h1.1c0.1,0,0.2-0.1,0.2-0.2l0.6-4l1.9,4.2c0,0.1,0.1,0.2,0.2,0.2h0.2c0.1,0,0.2-0.1,0.2-0.2l1.9-4.2
	l0.6,4c0,0.1,0.1,0.2,0.2,0.2h1c0.1,0,0.2,0,0.2-0.2l-1.3-7.1C78.6,42.3,78.6,42.3,78.4,42.3z"/>
<path fill="#91C740" d="M91.9,42.3h-4.4c-0.1,0-0.2,0.1-0.2,0.2v6.8c0,0.1,0,0.2,0.2,0.2h4.4c0.1,0,0.2-0.1,0.2-0.2v-0.8
	c0-0.1,0-0.2-0.2-0.2h-3.3v-1.8h2.6c0.1,0,0.2,0,0.2-0.2v-0.9c0-0.1-0.1-0.2-0.2-0.2h-2.6v-1.7h3.3c0.1,0,0.2-0.1,0.2-0.2v-0.8
	C92.1,42.3,92.1,42.3,91.9,42.3z"/>
<path fill="#91C740" d="M106,42.3h-1c-0.1,0-0.2,0.1-0.2,0.2v4.4l-4.5-4.7H100c-0.1,0-0.2,0.1-0.2,0.2l0.1,7.1
	c0,0.1,0.1,0.2,0.2,0.2h1c0.1,0,0.2-0.1,0.2-0.2V45l4.5,4.8h0.2c0.1,0,0.2-0.1,0.2-0.2v-7.1C106.2,42.5,106,42.3,106,42.3z"/>
<path fill="#91C740" d="M118.3,42.5h-4.8c-0.1,0-0.2,0.1-0.2,0.2v0.8c0,0.1,0,0.2,0.2,0.2h1.7v5.9c0,0.1,0.1,0.2,0.2,0.2h1
	c0.1,0,0.2-0.1,0.2-0.2v-5.9h1.7c0.1,0,0.2-0.1,0.2-0.2v-0.8C118.5,42.6,118.5,42.5,118.3,42.5z"/>
<path fill="#91C740" d="M128,45.4c-0.9-0.4-1.3-0.7-1.3-1.2c0-0.4,0.4-0.8,1-0.8s1.4,0.5,1.5,0.6c0.2,0,0.3,0,0.4-0.2l0.4-0.6
	c0.1-0.2,0-0.3-0.1-0.4c-0.2-0.2-1.1-0.7-2.2-0.7c-1.7,0-2.4,1.1-2.4,2c0,1.2,0.9,1.9,2,2.3c0.9,0.4,1.4,0.8,1.4,1.3
	c0,0.4-0.5,0.8-1,0.8c-0.8,0-1.6-0.7-1.7-0.7c-0.1-0.1-0.3-0.1-0.4,0.1l-0.4,0.7c0,0.2,0,0.3,0.2,0.5c0.2,0.2,1,0.8,2.4,0.8
	c1.5,0,2.5-1,2.5-2.1C130.3,46.5,129.1,45.9,128,45.4z"/>
<line fill="none" x1="29.4" y1="10.1" x2="29.4" y2="10.1"/>
<path fill="#FFFFFF" d="M23,13.4h-0.1c-0.8-1.1-3.1-4.2-8.8-4.2c-7,0-14,5.6-14,13.9c0,8.9,7.4,14.4,14.1,14.4c5.6,0,8.1-3,9-4.2
	l0.2,0.2c-0.3,5.7-4.7,8.2-8.4,8.2c-1.1,0-4.2,0-6.8-3H0.7c2.4,5.9,8.1,8.8,13.8,8.8c5.2,0,15-2.9,15-15.7V10H23L23,13.4L23,13.4z
	 M15,31.7c-4,0-8.2-3.1-8.2-8.5c0-5.1,4.1-8.2,8-8.2c4.9,0,8.1,4.2,8.1,8.2C22.9,28.4,18.9,31.7,15,31.7z"/>
<line fill="none" x1="33.8" y1="10.1" x2="33.8" y2="10.1"/>
<path fill="#FFFFFF" d="M46.4,9.1h-0.5c-3.4,0-4.7,1.6-5.9,3.3h-0.1v-2.3h-6.1v26.5h6.6V21.7c0-1.6,0-6.2,6-6.4L46.4,9.1L46.4,9.1z"
	/>
<path fill="#FFFFFF" d="M76.1,36.6l0.1-26.5h-6.1v3.3H70c-0.2-0.3-3.5-4.2-9.1-4.2c-7.7,0-13.8,5.8-13.8,14
	c0,8.9,6.3,14.3,13.4,14.3c3.5,0,7.6-1.8,9.6-4.2v3.3L76.1,36.6L76.1,36.6z M61.8,31.7c-4.7,0-8.2-3.7-8.2-8.2c0-4,2.8-8.5,8.2-8.5
	c4,0,8,2.8,8,8.3C69.8,28.2,66.3,31.7,61.8,31.7z"/>
<polygon fill="#FFFFFF" points="93,27.7 92.8,27.7 86.1,10.1 79,10.1 90,36.6 95.1,36.6 106.3,10.1 99.1,10.1 "/>
<rect x="109" y="10.1" fill="#FFFFFF" width="6.6" height="26.5"/>
<polygon fill="#FFFFFF" points="129.4,1.2 122.8,1.2 122.8,10.1 119.5,10.1 119.5,15.8 122.8,15.8 122.8,36.8 129.4,36.8 
	129.4,15.8 133.3,15.8 133.3,10.1 129.4,10.1 "/>
<polygon fill="#FFFFFF" points="156.4,10.1 149.7,27.1 143.5,10.1 136,10.1 146.1,34.1 141,45.3 148.1,45.3 163.9,10.1 "/>
<circle fill="#91C740" cx="112.4" cy="3.6" r="3.6"/>
</svg>
